<svg xmlns="http://www.w3.org/2000/svg" width="512" height="512" viewBox="0 0 512 512">
  <defs>
    <linearGradient id="skyWash" x1="0%" y1="0%" x2="0%" y2="100%">
      <stop offset="0%" stop-color="#fff6e4" />
      <stop offset="100%" stop-color="#f2ddc8" />
    </linearGradient>
    <radialGradient id="wingGradient" cx="50%" cy="40%" r="60%">
      <stop offset="0%" stop-color="#ffe9b3" stop-opacity="0.97" />
      <stop offset="60%" stop-color="#f7c883" stop-opacity="0.92" />
      <stop offset="100%" stop-color="#eca178" stop-opacity="0.86" />
    </radialGradient>
    <radialGradient id="bodyGradient" cx="50%" cy="40%" r="60%">
      <stop offset="0%" stop-color="#5e4a3b" />
      <stop offset="100%" stop-color="#3d2c22" />
    </radialGradient>
    <filter id="pencilShimmer" x="-10%" y="-10%" width="120%" height="120%">
      <feTurbulence type="fractalNoise" baseFrequency="0.72" numOctaves="3" seed="9" result="noise" />
      <feColorMatrix in="noise" type="matrix" values="0 0 0 0 0.6 0 0 0 0 0.45 0 0 0 0 0.37 0 0 0 0.18 0" />
      <feBlend mode="multiply" in2="SourceGraphic" />
    </filter>
    <filter id="bookGlow" x="-30%" y="-30%" width="160%" height="160%">
      <feGaussianBlur stdDeviation="10" result="blur" />
      <feColorMatrix type="matrix" values="0 0 0 0 1  0 0 0 0 0.88  0 0 0 0 0.62  0 0 0 0.45 0" />
    </filter>
  </defs>
  <rect width="512" height="512" fill="url(#skyWash)" />
  <ellipse cx="258" cy="404" rx="168" ry="52" fill="#cdbfb1" opacity="0.34">
    <animate attributeName="rx" values="168;176;168" dur="4.2s" repeatCount="indefinite" />
    <animate attributeName="ry" values="52;48;52" dur="4.2s" repeatCount="indefinite" />
  </ellipse>
  <g filter="url(#pencilShimmer)">
    <path d="M214 284 C166 242 148 204 170 176 C196 140 248 166 270 188" fill="none" stroke="#c4895f" stroke-width="6" stroke-linecap="round">
      <animate attributeName="stroke-width" values="6;6.6;6" dur="4.2s" repeatCount="indefinite" />
    </path>
    <path d="M304 190 C336 160 392 144 420 184 C444 218 412 262 360 286" fill="none" stroke="#cb8f63" stroke-width="6" stroke-linecap="round">
      <animate attributeName="stroke-width" values="6;5.4;6" dur="4.2s" repeatCount="indefinite" />
    </path>
    <g id="leftWing">
      <path id="leftWingFill" d="M244 236 C186 192 168 156 188 134 C210 112 260 144 286 176 C298 192 300 220 288 244 Z" fill="url(#wingGradient)" stroke="#b37754" stroke-width="6">
        <animateTransform attributeName="transform" type="rotate" dur="4.2s" repeatCount="indefinite" values="5 260 210; -4 260 210; 5 260 210" />
      </path>
      <path d="M208 188 Q232 220 254 236" fill="none" stroke="#fce3bb" stroke-width="5" stroke-linecap="round">
        <animate attributeName="opacity" values="1;0.7;1" dur="4.2s" repeatCount="indefinite" />
      </path>
      <path d="M226 168 Q244 196 270 216" fill="none" stroke="#fce3bb" stroke-width="4" stroke-linecap="round" opacity="0.72">
        <animate attributeName="opacity" values="0.72;0.5;0.72" dur="4.2s" repeatCount="indefinite" />
      </path>
    </g>
    <g id="rightWing">
      <path id="rightWingFill" d="M274 238 C284 210 322 176 358 162 C400 146 434 170 424 212 C414 250 356 288 302 290 Z" fill="url(#wingGradient)" stroke="#b37754" stroke-width="6">
        <animateTransform attributeName="transform" type="rotate" dur="4.2s" repeatCount="indefinite" values="-6 320 210; 4 320 210; -6 320 210" />
      </path>
      <path d="M324 188 Q304 226 278 240" fill="none" stroke="#fce3bb" stroke-width="5" stroke-linecap="round">
        <animate attributeName="opacity" values="1;0.68;1" dur="4.2s" repeatCount="indefinite" />
      </path>
      <path d="M348 180 Q316 216 288 242" fill="none" stroke="#fce3bb" stroke-width="4" stroke-linecap="round" opacity="0.72">
        <animate attributeName="opacity" values="0.72;0.48;0.72" dur="4.2s" repeatCount="indefinite" />
      </path>
    </g>
    <g id="body">
      <path d="M270 186 C260 208 258 228 266 254 C274 286 292 316 298 338 L318 334 C312 316 304 288 300 262 C296 236 300 214 314 194 Z" fill="url(#bodyGradient)" stroke="#2b1f19" stroke-width="4">
        <animateTransform attributeName="transform" type="translate" values="0 0; 0 -4; 0 0" dur="4.2s" repeatCount="indefinite" />
      </path>
      <ellipse cx="288" cy="182" rx="12" ry="16" fill="#3b2c23" stroke="#2b1f19" stroke-width="3">
        <animate attributeName="cy" values="182;178;182" dur="4.2s" repeatCount="indefinite" />
      </ellipse>
      <circle cx="284" cy="176" r="4" fill="#f7f3e9">
        <animate attributeName="cx" values="284;286;284" dur="4.2s" repeatCount="indefinite" />
      </circle>
      <circle cx="292" cy="178" r="3" fill="#f7f3e9">
        <animate attributeName="cx" values="292;294;292" dur="4.2s" repeatCount="indefinite" />
      </circle>
      <path d="M284 164 Q272 142 252 134" fill="none" stroke="#2b1f19" stroke-width="4" stroke-linecap="round">
        <animate attributeName="d" values="M284 164 Q272 142 252 134; M286 162 Q274 140 256 134; M284 164 Q272 142 252 134" dur="4.2s" repeatCount="indefinite" />
      </path>
      <path d="M294 162 Q308 140 328 136" fill="none" stroke="#2b1f19" stroke-width="4" stroke-linecap="round">
        <animate attributeName="d" values="M294 162 Q308 140 328 136; M296 160 Q310 138 330 134; M294 162 Q308 140 328 136" dur="4.2s" repeatCount="indefinite" />
      </path>
    </g>
    <g id="book">
      <g filter="url(#bookGlow)" opacity="0.6">
        <ellipse cx="304" cy="300" rx="140" ry="74" fill="#fff4d6">
          <animate attributeName="opacity" values="0.6;0.85;0.6" dur="2.1s" repeatCount="indefinite" />
        </ellipse>
      </g>
      <path d="M218 282 L320 240 Q330 236 340 244 L400 290 C406 296 404 306 394 310 L282 350 C272 354 258 350 252 344 L212 300 C206 292 210 284 218 282 Z" fill="#f5d7a5" stroke="#ba8b57" stroke-width="5">
        <animate attributeName="d" values="M218 282 L320 240 Q330 236 340 244 L400 290 C406 296 404 306 394 310 L282 350 C272 354 258 350 252 344 L212 300 C206 292 210 284 218 282 Z; M220 284 L322 240 Q332 236 342 244 L402 292 C408 298 404 308 394 312 L284 352 C274 356 260 352 254 346 L214 302 C208 294 212 286 220 284 Z; M218 282 L320 240 Q330 236 340 244 L400 290 C406 296 404 306 394 310 L282 350 C272 354 258 350 252 344 L212 300 C206 292 210 284 218 282 Z" dur="4.2s" repeatCount="indefinite" />
      </path>
      <path d="M270 264 L280 336" stroke="#cfa16c" stroke-width="5" stroke-linecap="round">
        <animate attributeName="d" values="M270 264 L280 336; M272 262 L282 334; M270 264 L280 336" dur="4.2s" repeatCount="indefinite" />
      </path>
      <path d="M326 246 L336 320" stroke="#cfa16c" stroke-width="5" stroke-linecap="round">
        <animate attributeName="d" values="M326 246 L336 320; M328 244 L338 318; M326 246 L336 320" dur="4.2s" repeatCount="indefinite" />
      </path>
      <path d="M218 288 Q276 326 312 338" fill="none" stroke="#fff2d8" stroke-width="6" opacity="0.82" stroke-linecap="round">
        <animate attributeName="opacity" values="0.82;0.95;0.82" dur="2.1s" repeatCount="indefinite" />
      </path>
      <path d="M312 338 Q364 310 398 292" fill="none" stroke="#fff2d8" stroke-width="6" opacity="0.82" stroke-linecap="round">
        <animate attributeName="opacity" values="0.82;0.93;0.82" dur="2.1s" repeatCount="indefinite" />
      </path>
    </g>
  </g>
  <g opacity="0.4">
    <path d="M186 126 Q214 110 258 122" stroke="#d49e71" stroke-width="5" fill="none" stroke-linecap="round">
      <animate attributeName="stroke-width" values="5;6;5" dur="4.2s" repeatCount="indefinite" />
    </path>
    <path d="M324 124 Q380 116 424 158" stroke="#d9a579" stroke-width="5" fill="none" stroke-linecap="round">
      <animate attributeName="stroke-width" values="5;4.4;5" dur="4.2s" repeatCount="indefinite" />
    </path>
  </g>
  <text x="90" y="468" font-family="'Courgette', 'Comic Sans MS', cursive" font-size="44" fill="#8a694c" opacity="0.9">
    Butterfly Reading Glow
    <animate attributeName="opacity" values="0.9;0.76;0.9" dur="4.2s" repeatCount="indefinite" />
  </text>
</svg>
