<svg xmlns="http://www.w3.org/2000/svg" width="512" height="512" viewBox="0 0 512 512">
  <defs>
    <linearGradient id="skyWash" x1="0%" y1="0%" x2="0%" y2="100%">
      <stop offset="0%" stop-color="#fef8e9" />
      <stop offset="100%" stop-color="#f5e5d2" />
    </linearGradient>
    <radialGradient id="wingGradient" cx="50%" cy="40%" r="60%">
      <stop offset="0%" stop-color="#ffeab5" stop-opacity="0.95" />
      <stop offset="60%" stop-color="#f7c47f" stop-opacity="0.9" />
      <stop offset="100%" stop-color="#e8966f" stop-opacity="0.85" />
    </radialGradient>
    <radialGradient id="bodyGradient" cx="50%" cy="40%" r="60%">
      <stop offset="0%" stop-color="#5a4738" />
      <stop offset="100%" stop-color="#3a2a21" />
    </radialGradient>
    <filter id="pencilShimmer" x="-10%" y="-10%" width="120%" height="120%">
      <feTurbulence type="fractalNoise" baseFrequency="0.7" numOctaves="3" seed="8" result="noise" />
      <feColorMatrix in="noise" type="matrix" values="0 0 0 0 0.6 0 0 0 0 0.45 0 0 0 0 0.38 0 0 0 0.18 0" />
      <feBlend mode="multiply" in2="SourceGraphic" />
    </filter>
  </defs>
  <rect width="512" height="512" fill="url(#skyWash)" />
  <ellipse cx="256" cy="400" rx="164" ry="50" fill="#cfc1b2" opacity="0.36" />
  <g filter="url(#pencilShimmer)">
    <path d="M210 280 C160 240 140 200 162 172 C190 134 248 164 270 188" fill="none" stroke="#c4895f" stroke-width="6" stroke-linecap="round" />
    <path d="M302 188 C330 156 386 140 418 180 C444 212 418 258 366 284" fill="none" stroke="#cb8f63" stroke-width="6" stroke-linecap="round" />
    <g id="leftWing">
      <path d="M244 234 C182 188 164 152 186 132 C210 110 256 140 280 170 C292 186 294 214 284 236 Z" fill="url(#wingGradient)" stroke="#b37754" stroke-width="6" />
      <path d="M206 186 Q226 214 248 230" fill="none" stroke="#fce3bb" stroke-width="5" stroke-linecap="round" />
      <path d="M222 166 Q238 190 262 210" fill="none" stroke="#fce3bb" stroke-width="4" stroke-linecap="round" opacity="0.7" />
    </g>
    <g id="rightWing">
      <path d="M270 236 C280 208 314 176 350 160 C392 142 430 166 422 206 C414 244 360 282 308 284 Z" fill="url(#wingGradient)" stroke="#b37754" stroke-width="6" />
      <path d="M320 186 Q302 220 276 236" fill="none" stroke="#fce3bb" stroke-width="5" stroke-linecap="round" />
      <path d="M344 176 Q314 212 284 236" fill="none" stroke="#fce3bb" stroke-width="4" stroke-linecap="round" opacity="0.7" />
    </g>
    <g id="body">
      <path d="M270 182 C258 206 256 226 262 250 C270 282 288 312 294 334 L314 330 C310 314 302 286 298 260 C294 234 298 214 312 192 Z" fill="url(#bodyGradient)" stroke="#2b1f19" stroke-width="4" />
      <ellipse cx="286" cy="180" rx="12" ry="16" fill="#3b2c23" stroke="#2b1f19" stroke-width="3" />
      <circle cx="282" cy="174" r="4" fill="#f7f3e9" />
      <circle cx="290" cy="176" r="3" fill="#f7f3e9" />
      <path d="M282 162 Q270 140 250 132" fill="none" stroke="#2b1f19" stroke-width="4" stroke-linecap="round" />
      <path d="M292 160 Q306 138 326 134" fill="none" stroke="#2b1f19" stroke-width="4" stroke-linecap="round" />
    </g>
    <g id="book">
      <path d="M214 278 L314 238 Q324 234 332 240 L394 284 C402 290 398 300 388 304 L276 346 C268 350 256 348 250 342 L210 296 C204 288 206 280 214 278 Z" fill="#f5d7a5" stroke="#ba8b57" stroke-width="5" />
      <path d="M264 260 L274 332" stroke="#cfa16c" stroke-width="5" stroke-linecap="round" />
      <path d="M318 244 L328 316" stroke="#cfa16c" stroke-width="5" stroke-linecap="round" />
      <path d="M214 284 Q270 320 304 332" fill="none" stroke="#fff2d8" stroke-width="6" opacity="0.8" stroke-linecap="round" />
      <path d="M304 332 Q354 304 390 288" fill="none" stroke="#fff2d8" stroke-width="6" opacity="0.8" stroke-linecap="round" />
    </g>
  </g>
  <g opacity="0.35">
    <path d="M182 122 Q210 108 256 120" stroke="#d49e71" stroke-width="5" fill="none" stroke-linecap="round" />
    <path d="M320 120 Q376 112 420 152" stroke="#d9a579" stroke-width="5" fill="none" stroke-linecap="round" />
  </g>
  <text x="90" y="468" font-family="'Courgette', 'Comic Sans MS', cursive" font-size="44" fill="#8a694c" opacity="0.88">Butterfly Reading Glow</text>
</svg>
