<svg xmlns="http://www.w3.org/2000/svg" width="512" height="512" viewBox="0 0 512 512">
  <defs>
    <linearGradient id="skyWash" x1="0%" y1="0%" x2="0%" y2="100%">
      <stop offset="0%" stop-color="#fff7e6" />
      <stop offset="100%" stop-color="#f3e1ce" />
    </linearGradient>
    <radialGradient id="wingGradient" cx="50%" cy="40%" r="60%">
      <stop offset="0%" stop-color="#ffeab5" stop-opacity="0.96" />
      <stop offset="60%" stop-color="#f7c580" stop-opacity="0.9" />
      <stop offset="100%" stop-color="#ea9a72" stop-opacity="0.86" />
    </radialGradient>
    <radialGradient id="bodyGradient" cx="50%" cy="40%" r="60%">
      <stop offset="0%" stop-color="#5c4839" />
      <stop offset="100%" stop-color="#3c2b22" />
    </radialGradient>
    <filter id="pencilShimmer" x="-10%" y="-10%" width="120%" height="120%">
      <feTurbulence type="fractalNoise" baseFrequency="0.72" numOctaves="3" seed="9" result="noise" />
      <feColorMatrix in="noise" type="matrix" values="0 0 0 0 0.58 0 0 0 0 0.44 0 0 0 0 0.36 0 0 0 0.18 0" />
      <feBlend mode="multiply" in2="SourceGraphic" />
    </filter>
  </defs>
  <rect width="512" height="512" fill="url(#skyWash)" />
  <ellipse cx="258" cy="404" rx="168" ry="52" fill="#cdbfb1" opacity="0.34" />
  <g filter="url(#pencilShimmer)">
    <path d="M214 284 C166 242 148 204 170 176 C196 140 248 166 270 188" fill="none" stroke="#c4895f" stroke-width="6" stroke-linecap="round" />
    <path d="M304 190 C336 160 392 144 420 184 C444 218 412 262 360 286" fill="none" stroke="#cb8f63" stroke-width="6" stroke-linecap="round" />
    <g id="leftWing">
      <path d="M244 236 C186 192 168 156 188 134 C210 112 260 144 286 176 C298 192 300 220 288 244 Z" fill="url(#wingGradient)" stroke="#b37754" stroke-width="6" />
      <path d="M208 188 Q232 220 254 236" fill="none" stroke="#fce3bb" stroke-width="5" stroke-linecap="round" />
      <path d="M226 168 Q244 196 270 216" fill="none" stroke="#fce3bb" stroke-width="4" stroke-linecap="round" opacity="0.72" />
    </g>
    <g id="rightWing">
      <path d="M274 238 C284 210 322 176 358 162 C400 146 434 170 424 212 C414 250 356 288 302 290 Z" fill="url(#wingGradient)" stroke="#b37754" stroke-width="6" />
      <path d="M324 188 Q304 226 278 240" fill="none" stroke="#fce3bb" stroke-width="5" stroke-linecap="round" />
      <path d="M348 180 Q316 216 288 242" fill="none" stroke="#fce3bb" stroke-width="4" stroke-linecap="round" opacity="0.72" />
    </g>
    <g id="body">
      <path d="M270 186 C260 208 258 228 266 254 C274 286 292 316 298 338 L318 334 C312 316 304 288 300 262 C296 236 300 214 314 194 Z" fill="url(#bodyGradient)" stroke="#2b1f19" stroke-width="4" />
      <ellipse cx="288" cy="182" rx="12" ry="16" fill="#3b2c23" stroke="#2b1f19" stroke-width="3" />
      <circle cx="284" cy="176" r="4" fill="#f7f3e9" />
      <circle cx="292" cy="178" r="3" fill="#f7f3e9" />
      <path d="M284 164 Q272 142 252 134" fill="none" stroke="#2b1f19" stroke-width="4" stroke-linecap="round" />
      <path d="M294 162 Q308 140 328 136" fill="none" stroke="#2b1f19" stroke-width="4" stroke-linecap="round" />
    </g>
    <g id="book">
      <path d="M218 282 L320 240 Q330 236 340 244 L400 290 C406 296 404 306 394 310 L282 350 C272 354 258 350 252 344 L212 300 C206 292 210 284 218 282 Z" fill="#f5d7a5" stroke="#ba8b57" stroke-width="5" />
      <path d="M270 264 L280 336" stroke="#cfa16c" stroke-width="5" stroke-linecap="round" />
      <path d="M326 246 L336 320" stroke="#cfa16c" stroke-width="5" stroke-linecap="round" />
      <path d="M218 288 Q276 326 312 338" fill="none" stroke="#fff2d8" stroke-width="6" opacity="0.82" stroke-linecap="round" />
      <path d="M312 338 Q364 310 398 292" fill="none" stroke="#fff2d8" stroke-width="6" opacity="0.82" stroke-linecap="round" />
    </g>
  </g>
  <g opacity="0.38">
    <path d="M186 126 Q214 110 258 122" stroke="#d49e71" stroke-width="5" fill="none" stroke-linecap="round" />
    <path d="M324 124 Q380 116 424 158" stroke="#d9a579" stroke-width="5" fill="none" stroke-linecap="round" />
  </g>
  <text x="90" y="468" font-family="'Courgette', 'Comic Sans MS', cursive" font-size="44" fill="#8a694c" opacity="0.9">Butterfly Reading Glow</text>
</svg>
