<svg xmlns="http://www.w3.org/2000/svg" width="512" height="512" viewBox="0 0 512 512">
  <defs>
    <linearGradient id="skyWash" x1="0%" y1="0%" x2="0%" y2="100%">
      <stop offset="0%" stop-color="#fff6e4" />
      <stop offset="100%" stop-color="#f2ddc8" />
    </linearGradient>
    <radialGradient id="wingGradient" cx="50%" cy="40%" r="60%">
      <stop offset="0%" stop-color="#ffe8b2" stop-opacity="0.97" />
      <stop offset="60%" stop-color="#f7c685" stop-opacity="0.92" />
      <stop offset="100%" stop-color="#ec9f76" stop-opacity="0.86" />
    </radialGradient>
    <radialGradient id="bodyGradient" cx="50%" cy="40%" r="60%">
      <stop offset="0%" stop-color="#5e4a3b" />
      <stop offset="100%" stop-color="#3d2c22" />
    </radialGradient>
    <filter id="pencilShimmer" x="-10%" y="-10%" width="120%" height="120%">
      <feTurbulence type="fractalNoise" baseFrequency="0.74" numOctaves="3" seed="10" result="noise" />
      <feColorMatrix in="noise" type="matrix" values="0 0 0 0 0.6 0 0 0 0 0.46 0 0 0 0 0.38 0 0 0 0.18 0" />
      <feBlend mode="multiply" in2="SourceGraphic" />
    </filter>
  </defs>
  <rect width="512" height="512" fill="url(#skyWash)" />
  <ellipse cx="260" cy="408" rx="170" ry="54" fill="#cbbdb0" opacity="0.32" />
  <g filter="url(#pencilShimmer)">
    <path d="M218 288 C172 244 156 208 176 180 C200 146 252 168 276 192" fill="none" stroke="#c4895f" stroke-width="6" stroke-linecap="round" />
    <path d="M306 194 C338 164 398 148 424 190 C446 226 408 268 354 292" fill="none" stroke="#cb8f63" stroke-width="6" stroke-linecap="round" />
    <g id="leftWing">
      <path d="M246 240 C192 196 174 160 194 136 C214 114 266 148 294 180 C306 198 308 228 294 252 Z" fill="url(#wingGradient)" stroke="#b37754" stroke-width="6" />
      <path d="M212 190 Q238 226 262 244" fill="none" stroke="#fce3bb" stroke-width="5" stroke-linecap="round" />
      <path d="M230 170 Q250 202 278 222" fill="none" stroke="#fce3bb" stroke-width="4" stroke-linecap="round" opacity="0.74" />
    </g>
    <g id="rightWing">
      <path d="M278 242 C290 212 330 176 368 164 C408 150 440 176 426 218 C412 256 352 294 296 296 Z" fill="url(#wingGradient)" stroke="#b37754" stroke-width="6" />
      <path d="M328 192 Q306 232 280 248" fill="none" stroke="#fce3bb" stroke-width="5" stroke-linecap="round" />
      <path d="M354 184 Q318 220 292 250" fill="none" stroke="#fce3bb" stroke-width="4" stroke-linecap="round" opacity="0.74" />
    </g>
    <g id="body">
      <path d="M272 190 C262 212 262 232 270 258 C278 290 296 322 302 344 L322 338 C314 320 308 290 304 266 C300 238 304 216 318 198 Z" fill="url(#bodyGradient)" stroke="#2b1f19" stroke-width="4" />
      <ellipse cx="292" cy="184" rx="12" ry="16" fill="#3b2c23" stroke="#2b1f19" stroke-width="3" />
      <circle cx="288" cy="178" r="4" fill="#f7f3e9" />
      <circle cx="296" cy="180" r="3" fill="#f7f3e9" />
      <path d="M288 166 Q276 144 256 136" fill="none" stroke="#2b1f19" stroke-width="4" stroke-linecap="round" />
      <path d="M298 166 Q312 142 334 140" fill="none" stroke="#2b1f19" stroke-width="4" stroke-linecap="round" />
    </g>
    <g id="book">
      <path d="M222 286 L326 244 Q336 240 344 246 L404 296 C410 302 410 312 400 316 L286 354 C276 358 262 354 256 346 L216 302 C210 294 214 286 222 286 Z" fill="#f5d7a5" stroke="#ba8b57" stroke-width="5" />
      <path d="M274 268 L284 340" stroke="#cfa16c" stroke-width="5" stroke-linecap="round" />
      <path d="M330 248 L340 324" stroke="#cfa16c" stroke-width="5" stroke-linecap="round" />
      <path d="M222 292 Q282 330 318 342" fill="none" stroke="#fff2d8" stroke-width="6" opacity="0.84" stroke-linecap="round" />
      <path d="M318 342 Q370 314 404 296" fill="none" stroke="#fff2d8" stroke-width="6" opacity="0.84" stroke-linecap="round" />
    </g>
  </g>
  <g opacity="0.4">
    <path d="M190 130 Q218 112 262 126" stroke="#d49e71" stroke-width="5" fill="none" stroke-linecap="round" />
    <path d="M326 128 Q384 118 428 162" stroke="#d9a579" stroke-width="5" fill="none" stroke-linecap="round" />
  </g>
  <text x="90" y="468" font-family="'Courgette', 'Comic Sans MS', cursive" font-size="44" fill="#8a694c" opacity="0.92">Butterfly Reading Glow</text>
</svg>
