<svg xmlns="http://www.w3.org/2000/svg" width="512" height="512" viewBox="0 0 512 512">
  <defs>
    <linearGradient id="leafBase" x1="0%" y1="0%" x2="0%" y2="100%">
      <stop offset="0%" stop-color="#9ad672" stop-opacity="0.92" />
      <stop offset="100%" stop-color="#5f9b3f" stop-opacity="0.96" />
    </linearGradient>
    <linearGradient id="bookCover" x1="0%" y1="0%" x2="100%" y2="0%">
      <stop offset="0%" stop-color="#f5d4a1" />
      <stop offset="50%" stop-color="#e9b87c" />
      <stop offset="100%" stop-color="#f8ead0" />
    </linearGradient>
    <filter id="pencilTexture" x="-10%" y="-10%" width="120%" height="120%">
      <feTurbulence type="fractalNoise" baseFrequency="0.9" numOctaves="3" seed="12" result="noise" />
      <feColorMatrix in="noise" type="matrix" values="0 0 0 0 0.4 0 0 0 0 0.45 0 0 0 0 0.35 0 0 0 0.12 0" />
      <feBlend mode="multiply" in2="SourceGraphic" />
    </filter>
  </defs>
  <rect width="512" height="512" fill="#f2efe6" />
  <ellipse cx="256" cy="380" rx="180" ry="52" fill="#d0c6b8" opacity="0.45" />
  <g filter="url(#pencilTexture)">
    <path d="M120 340 C160 300 230 290 300 320 C330 332 360 350 382 368 C340 396 200 400 132 368 Z" fill="url(#leafBase)" stroke="#3f6b2a" stroke-width="4" stroke-linecap="round" />
    <g id="segments">
      <ellipse cx="170" cy="298" rx="58" ry="50" fill="#84b85a" stroke="#3a5d28" stroke-width="5" />
      <ellipse cx="225" cy="282" rx="60" ry="52" fill="#7fb458" stroke="#365526" stroke-width="5" />
      <ellipse cx="282" cy="280" rx="64" ry="54" fill="#74aa4d" stroke="#325022" stroke-width="5" />
      <ellipse cx="338" cy="296" rx="55" ry="48" fill="#6da445" stroke="#2d4b1f" stroke-width="5" />
    </g>
    <g id="head">
      <ellipse cx="368" cy="252" rx="52" ry="48" fill="#7fb458" stroke="#2d4b1f" stroke-width="5" />
      <circle cx="352" cy="242" r="8" fill="#1f2b1a" />
      <circle cx="384" cy="236" r="7" fill="#1f2b1a" />
      <path d="M350 270 C360 284 382 286 398 268" fill="none" stroke="#1f2b1a" stroke-width="5" stroke-linecap="round" />
      <path d="M340 210 Q330 180 310 176" fill="none" stroke="#2d4b1f" stroke-width="6" stroke-linecap="round" />
      <path d="M396 212 Q410 184 432 188" fill="none" stroke="#2d4b1f" stroke-width="6" stroke-linecap="round" />
    </g>
    <g id="book">
      <path d="M178 276 L290 224 Q308 214 320 224 L420 272 Q428 276 420 284 L310 340 Q300 346 292 340 L182 288 Q172 282 178 276 Z" fill="url(#bookCover)" stroke="#bb8a46" stroke-width="4" />
      <path d="M250 248 L252 328" stroke="#c99d63" stroke-width="5" stroke-linecap="round" />
      <path d="M312 236 L314 326" stroke="#c99d63" stroke-width="5" stroke-linecap="round" />
      <path d="M182 284 Q254 322 292 336" fill="none" stroke="#f8ead0" stroke-width="6" stroke-linecap="round" opacity="0.75" />
      <path d="M292 336 Q360 304 412 280" fill="none" stroke="#f8ead0" stroke-width="6" stroke-linecap="round" opacity="0.75" />
    </g>
  </g>
  <g opacity="0.28">
    <path d="M140 120 Q200 60 300 90" stroke="#c18453" stroke-width="6" stroke-linecap="round" fill="none" />
    <path d="M320 100 Q420 140 440 220" stroke="#d29a68" stroke-width="6" stroke-linecap="round" fill="none" />
  </g>
  <text x="60" y="460" font-family="'Courgette', 'Comic Sans MS', cursive" font-size="42" fill="#826648" opacity="0.85">Caterpillar Study Break</text>
</svg>
