<svg xmlns="http://www.w3.org/2000/svg" width="512" height="512" viewBox="0 0 512 512">
  <defs>
    <linearGradient id="leafBase" x1="0%" y1="0%" x2="0%" y2="100%">
      <stop offset="0%" stop-color="#9ad672" stop-opacity="0.92" />
      <stop offset="100%" stop-color="#5f9b3f" stop-opacity="0.96" />
    </linearGradient>
    <linearGradient id="bookCover" x1="0%" y1="0%" x2="100%" y2="0%">
      <stop offset="0%" stop-color="#f5d4a1" />
      <stop offset="50%" stop-color="#e9b87c" />
      <stop offset="100%" stop-color="#f8ead0" />
    </linearGradient>
    <filter id="pencilTexture" x="-10%" y="-10%" width="120%" height="120%">
      <feTurbulence type="fractalNoise" baseFrequency="0.92" numOctaves="3" seed="15" result="noise" />
      <feColorMatrix in="noise" type="matrix" values="0 0 0 0 0.42 0 0 0 0 0.46 0 0 0 0 0.36 0 0 0 0.13 0" />
      <feBlend mode="multiply" in2="SourceGraphic" />
    </filter>
  </defs>
  <rect width="512" height="512" fill="#f1eee3" />
  <ellipse cx="258" cy="384" rx="184" ry="56" fill="#ccc2b5" opacity="0.44" />
  <g filter="url(#pencilTexture)">
    <path d="M124 344 C164 304 236 288 304 314 C334 324 366 344 386 362 C344 394 206 404 136 370 Z" fill="url(#leafBase)" stroke="#3f6b2a" stroke-width="4" stroke-linecap="round" />
    <g id="segments">
      <ellipse cx="174" cy="296" rx="58" ry="51" fill="#86ba5c" stroke="#3a5d28" stroke-width="5" />
      <ellipse cx="230" cy="278" rx="62" ry="52" fill="#81b55a" stroke="#365526" stroke-width="5" />
      <ellipse cx="288" cy="276" rx="66" ry="54" fill="#76ab4f" stroke="#325022" stroke-width="5" />
      <ellipse cx="344" cy="294" rx="56" ry="50" fill="#70a648" stroke="#2d4b1f" stroke-width="5" />
    </g>
    <g id="head">
      <ellipse cx="374" cy="250" rx="54" ry="48" fill="#81b55a" stroke="#2d4b1f" stroke-width="5" />
      <circle cx="358" cy="240" r="8" fill="#1f2b1a" />
      <circle cx="390" cy="234" r="7" fill="#1f2b1a" />
      <path d="M356 270 C366 284 388 286 404 268" fill="none" stroke="#1f2b1a" stroke-width="5" stroke-linecap="round" />
      <path d="M346 210 Q334 178 314 172" fill="none" stroke="#2d4b1f" stroke-width="6" stroke-linecap="round" />
      <path d="M402 210 Q418 182 440 188" fill="none" stroke="#2d4b1f" stroke-width="6" stroke-linecap="round" />
    </g>
    <g id="book">
      <path d="M182 274 L292 222 Q310 212 324 222 L424 270 Q432 274 424 284 L314 338 Q304 346 296 340 L186 286 Q176 280 182 274 Z" fill="url(#bookCover)" stroke="#bb8a46" stroke-width="4" />
      <path d="M254 246 L256 328" stroke="#c99d63" stroke-width="5" stroke-linecap="round" />
      <path d="M318 236 L320 324" stroke="#c99d63" stroke-width="5" stroke-linecap="round" />
      <path d="M186 284 Q260 324 298 338" fill="none" stroke="#f8ead0" stroke-width="6" stroke-linecap="round" opacity="0.75" />
      <path d="M298 338 Q364 306 416 282" fill="none" stroke="#f8ead0" stroke-width="6" stroke-linecap="round" opacity="0.75" />
    </g>
  </g>
  <g opacity="0.3">
    <path d="M138 118 Q200 58 302 88" stroke="#c48755" stroke-width="6" stroke-linecap="round" fill="none" />
    <path d="M324 98 Q426 140 446 220" stroke="#d29c6a" stroke-width="6" stroke-linecap="round" fill="none" />
  </g>
  <text x="60" y="462" font-family="'Courgette', 'Comic Sans MS', cursive" font-size="42" fill="#826648" opacity="0.85">Caterpillar Study Break</text>
</svg>
