<svg xmlns="http://www.w3.org/2000/svg" width="512" height="512" viewBox="0 0 512 512">
  <defs>
    <linearGradient id="leafBase" x1="0%" y1="0%" x2="0%" y2="100%">
      <stop offset="0%" stop-color="#9bd874" stop-opacity="0.94" />
      <stop offset="100%" stop-color="#5d973c" stop-opacity="0.96" />
    </linearGradient>
    <linearGradient id="bookCover" x1="0%" y1="0%" x2="100%" y2="0%">
      <stop offset="0%" stop-color="#f6d6a3" />
      <stop offset="50%" stop-color="#ecbb80" />
      <stop offset="100%" stop-color="#f9ecd2" />
    </linearGradient>
    <filter id="pencilTexture" x="-10%" y="-10%" width="120%" height="120%">
      <feTurbulence type="fractalNoise" baseFrequency="0.88" numOctaves="4" seed="18" result="noise" />
      <feColorMatrix in="noise" type="matrix" values="0 0 0 0 0.41 0 0 0 0 0.44 0 0 0 0 0.34 0 0 0 0.14 0" />
      <feBlend mode="multiply" in2="SourceGraphic" />
    </filter>
  </defs>
  <rect width="512" height="512" fill="#f3f0e8" />
  <ellipse cx="260" cy="386" rx="186" ry="58" fill="#cec4b8" opacity="0.44" />
  <g filter="url(#pencilTexture)">
    <path d="M126 346 C166 306 240 286 308 310 C338 320 370 342 390 362 C350 396 210 406 140 372 Z" fill="url(#leafBase)" stroke="#3f6b2a" stroke-width="4" stroke-linecap="round" />
    <g id="segments">
      <ellipse cx="176" cy="298" rx="58" ry="50" fill="#88bc5f" stroke="#3a5d28" stroke-width="5" />
      <ellipse cx="234" cy="280" rx="64" ry="52" fill="#84b85b" stroke="#365526" stroke-width="5" />
      <ellipse cx="294" cy="276" rx="66" ry="54" fill="#79ae51" stroke="#325022" stroke-width="5" />
      <ellipse cx="352" cy="290" rx="56" ry="50" fill="#72a849" stroke="#2d4b1f" stroke-width="5" />
    </g>
    <g id="head" transform="rotate(-4 368 252)">
      <ellipse cx="368" cy="252" rx="54" ry="48" fill="#84b85b" stroke="#2d4b1f" stroke-width="5" />
      <circle cx="352" cy="244" r="8" fill="#1f2b1a" />
      <circle cx="386" cy="236" r="7" fill="#1f2b1a" />
      <path d="M348 272 C358 286 380 288 396 270" fill="none" stroke="#1f2b1a" stroke-width="5" stroke-linecap="round" />
      <path d="M338 214 Q326 182 306 176" fill="none" stroke="#2d4b1f" stroke-width="6" stroke-linecap="round" />
      <path d="M394 214 Q410 186 432 192" fill="none" stroke="#2d4b1f" stroke-width="6" stroke-linecap="round" />
    </g>
    <g id="book">
      <path d="M186 276 L296 222 Q314 212 328 222 L428 272 Q436 276 428 286 L318 340 Q308 348 300 342 L190 288 Q180 282 186 276 Z" fill="url(#bookCover)" stroke="#bb8a46" stroke-width="4" />
      <path d="M258 248 L260 332" stroke="#c99d63" stroke-width="5" stroke-linecap="round" />
      <path d="M322 236 L324 326" stroke="#c99d63" stroke-width="5" stroke-linecap="round" />
      <path d="M190 286 Q264 328 302 342" fill="none" stroke="#f9ecd2" stroke-width="6" stroke-linecap="round" opacity="0.78" />
      <path d="M302 342 Q368 308 420 284" fill="none" stroke="#f9ecd2" stroke-width="6" stroke-linecap="round" opacity="0.78" />
    </g>
  </g>
  <g opacity="0.32">
    <path d="M136 120 Q202 60 304 90" stroke="#c68a57" stroke-width="6" stroke-linecap="round" fill="none" />
    <path d="M326 100 Q428 142 450 220" stroke="#d59f6d" stroke-width="6" stroke-linecap="round" fill="none" />
  </g>
  <text x="60" y="462" font-family="'Courgette', 'Comic Sans MS', cursive" font-size="42" fill="#826648" opacity="0.85">Caterpillar Study Break</text>
</svg>
