<svg xmlns="http://www.w3.org/2000/svg" width="512" height="512" viewBox="0 0 512 512">
  <defs>
    <linearGradient id="leafBase" x1="0%" y1="0%" x2="0%" y2="100%">
      <stop offset="0%" stop-color="#9ad672" stop-opacity="0.92" />
      <stop offset="100%" stop-color="#5f9b3f" stop-opacity="0.96" />
    </linearGradient>
    <linearGradient id="bookCover" x1="0%" y1="0%" x2="100%" y2="0%">
      <stop offset="0%" stop-color="#f5d4a1" />
      <stop offset="50%" stop-color="#e9b87c" />
      <stop offset="100%" stop-color="#f8ead0" />
    </linearGradient>
    <filter id="pencilTexture" x="-10%" y="-10%" width="120%" height="120%">
      <feTurbulence type="fractalNoise" baseFrequency="0.9" numOctaves="3" seed="12" result="noise" />
      <feColorMatrix in="noise" type="matrix" values="0 0 0 0 0.4 0 0 0 0 0.45 0 0 0 0 0.35 0 0 0 0.12 0" />
      <feBlend mode="multiply" in2="SourceGraphic" />
    </filter>
  </defs>
  <rect width="512" height="512" fill="#f2efe6" />
  <ellipse cx="256" cy="382" rx="182" ry="54" fill="#d0c6b8" opacity="0.45" />
  <g filter="url(#pencilTexture)">
    <path d="M122 342 C162 302 234 288 302 316 C332 328 362 348 384 366 C342 394 204 402 134 368 Z" fill="url(#leafBase)" stroke="#3f6b2a" stroke-width="4" stroke-linecap="round" />
    <g id="segments">
      <ellipse cx="172" cy="300" rx="58" ry="50" fill="#84b85a" stroke="#3a5d28" stroke-width="5" />
      <ellipse cx="228" cy="284" rx="60" ry="52" fill="#7fb458" stroke="#365526" stroke-width="5" />
      <ellipse cx="286" cy="280" rx="64" ry="54" fill="#74aa4d" stroke="#325022" stroke-width="5" />
      <ellipse cx="342" cy="294" rx="55" ry="48" fill="#6da445" stroke="#2d4b1f" stroke-width="5" />
    </g>
    <g id="head">
      <ellipse cx="372" cy="252" rx="52" ry="48" fill="#7fb458" stroke="#2d4b1f" stroke-width="5" />
      <circle cx="356" cy="242" r="8" fill="#1f2b1a" />
      <circle cx="388" cy="236" r="7" fill="#1f2b1a" />
      <path d="M354 270 C364 284 386 286 402 268" fill="none" stroke="#1f2b1a" stroke-width="5" stroke-linecap="round" />
      <path d="M344 210 Q334 180 314 176" fill="none" stroke="#2d4b1f" stroke-width="6" stroke-linecap="round" />
      <path d="M400 212 Q414 184 436 188" fill="none" stroke="#2d4b1f" stroke-width="6" stroke-linecap="round" />
    </g>
    <g id="book">
      <path d="M180 276 L292 224 Q310 214 322 224 L422 272 Q430 276 422 284 L312 340 Q302 346 294 340 L184 288 Q174 282 180 276 Z" fill="url(#bookCover)" stroke="#bb8a46" stroke-width="4" />
      <path d="M252 248 L254 328" stroke="#c99d63" stroke-width="5" stroke-linecap="round" />
      <path d="M314 236 L316 326" stroke="#c99d63" stroke-width="5" stroke-linecap="round" />
      <path d="M184 284 Q256 322 294 336" fill="none" stroke="#f8ead0" stroke-width="6" stroke-linecap="round" opacity="0.75" />
      <path d="M294 336 Q362 304 414 280" fill="none" stroke="#f8ead0" stroke-width="6" stroke-linecap="round" opacity="0.75" />
    </g>
  </g>
  <g opacity="0.28">
    <path d="M140 120 Q200 60 300 90" stroke="#c18453" stroke-width="6" stroke-linecap="round" fill="none" />
    <path d="M320 100 Q420 140 440 220" stroke="#d29a68" stroke-width="6" stroke-linecap="round" fill="none" />
  </g>
  <text x="60" y="460" font-family="'Courgette', 'Comic Sans MS', cursive" font-size="42" fill="#826648" opacity="0.85">Caterpillar Study Break</text>
</svg>
